<?xml version="1.0" encoding="UTF-8"?>
<svg xmlns="http://www.w3.org/2000/svg"
     xmlns:xlink="http://www.w3.org/1999/xlink" width="94px" height="100px"
     viewBox="0 0 94 100" version="1.1">
    <path d="M18.66 27.42c4.16 0 7.5-4.8 7.5-8.95c0-4.19-3.34-7.55-7.5-7.55c-4.19 0-7.55 3.36-7.55 7.55c0 4.16 3.36 8.95 7.55 8.95l0 0Z"
          fill="rgb(37,0,128)"/>
    <path d="M75.34 27.42c4.14 0 7.5-4.8 7.5-8.95c0-4.19-3.36-7.55-7.5-7.55c-4.2 0-7.56 3.36-7.56 7.55c0 4.16 3.36 8.95 7.56 8.95l0 0Z"
          fill="rgb(37,0,128)"/>
    <path d="M23.83 60.28c-1.11-1.39-1.63-3.17-1.44-4.94l2.98-26.47c-2.14-0.47-4.53-0.84-6.72-0.84c-5.31 0-11.52 2.09-12.72 2.52c-0.05 0-0.09 0-0.14 0.05c-0.05 0-0.09 0-0.09 0c-0.05 0.05-0.09 0.09-0.14 0.09c-0.28 0.14-0.56 0.28-0.8 0.52c-0.14 0.09-0.19 0.19-0.28 0.33c-0.14 0.14-0.33 0.31-0.42 0.55c-0.08 0.19-0.13 0.38-0.17 0.56c-0.05 0.14-0.09 0.28-0.14 0.42l-2.39 21.48c-0.17 1.64 1.03 3.08 2.67 3.27c0.08 0.05 0.17 0.05 0.31 0.05c1.5 0 2.8-1.17 2.94-2.66l2.2-19.53c0.22-0.09 0.5-0.19 0.83-0.28l0 20.38l-2.38 29.45c-0.19 2 1.31 3.73 3.27 3.88c0.09 0 0.19 0 0.28 0c1.86 0 3.41-1.41 3.58-3.27l2.16-26.66c0.42 0.17 0.92 0.27 1.44 0.27c0.52 0 0.98-0.09 1.45-0.27l2.14 26.66c0.14 1.86 1.67 3.27 3.55 3.27c0.09 0 0.19 0 0.27 0c1.97-0.14 3.45-1.88 3.27-3.88l-1.81-22.66c-1.41-0.33-2.75-1.11-3.69-2.28l0 0Z"
          fill="rgb(37,0,128)"/>
    <path d="M90.2 33.06c-0.05-0.14-0.09-0.23-0.14-0.38c-0.05-0.23-0.09-0.42-0.19-0.66c-0.09-0.14-0.23-0.27-0.33-0.41c-0.14-0.19-0.23-0.33-0.36-0.47c-0.19-0.14-0.38-0.23-0.56-0.33c-0.14-0.05-0.23-0.19-0.38-0.23c-0.28-0.09-7.14-2.56-12.91-2.56c-2.25 0-4.63 0.38-6.72 0.84l2.94 26.47c0.19 1.77-0.33 3.55-1.45 4.94c-0.92 1.17-2.23 1.95-3.67 2.28l-1.83 22.66c-0.17 1.95 1.31 3.69 3.27 3.88c0.09 0 0.19 0 0.28 0c1.88 0 3.41-1.41 3.59-3.27l2.14-26.66c0.42 0.17 0.89 0.27 1.45 0.27c0.5 0 0.97-0.09 1.39-0.27l2.14 26.66c0.19 1.86 1.73 3.27 3.59 3.27c0.09 0 0.19 0 0.28 0c1.95-0.19 3.45-1.92 3.27-3.88l-2.33-29.45l0-20.38c0.27 0.09 0.55 0.19 0.78 0.23l2.19 19.58c0.14 1.48 1.45 2.66 2.94 2.66c0.14 0 0.23-0.05 0.33-0.05c1.64-0.19 2.84-1.63 2.66-3.27l-2.38-21.48l0 0Z"
          fill="rgb(37,0,128)"/>
    <path d="M47 21.73c5.17 0 9.41-6.02 9.41-11.23c0-5.22-4.23-9.41-9.41-9.41c-5.22 0-9.47 4.19-9.47 9.41c0 5.22 4.25 11.23 9.47 11.23l0 0Z"
          fill="rgb(37,0,128)"/>
    <path d="M65.27 59.77c2.05-0.23 3.55-2.05 3.31-4.09l-2.98-26.84c0-0.19-0.14-0.33-0.19-0.52c-0.05-0.28-0.09-0.52-0.23-0.75c-0.09-0.23-0.28-0.42-0.42-0.61c-0.14-0.19-0.27-0.38-0.45-0.52c-0.19-0.17-0.42-0.31-0.7-0.45c-0.14-0.05-0.28-0.19-0.42-0.23c-0.33-0.14-7.83-2.84-14.78-3.17l-0.92 1.86l0 0l2.52 19.58l-2.98 5.22l-2.98-5.22l2.47-19.58l0 0l-0.94-1.86c-6.28 0.33-13.09 2.56-14.48 3.08c-0.05 0-0.09 0-0.19 0.05c0 0-0.05 0.05-0.09 0.05c-0.05 0-0.09 0.09-0.19 0.09c-0.38 0.19-0.7 0.33-0.98 0.59c-0.14 0.14-0.23 0.28-0.38 0.42c-0.19 0.23-0.38 0.42-0.45 0.7c-0.14 0.23-0.19 0.47-0.23 0.75c-0.05 0.14-0.19 0.33-0.19 0.52l-2.98 26.84c-0.23 2.05 1.25 3.86 3.31 4.09c0.13 0.05 0.27 0.05 0.41 0.05c1.88 0 3.5-1.39 3.69-3.3l2.7-24.48c0.33-0.09 0.7-0.19 1.08-0.27l0 25.44l-2.98 36.88c-0.19 2.47 1.63 4.61 4.09 4.84c0.14 0 0.23 0 0.38 0c2.28 0 4.25-1.77 4.44-4.09l2.7-33.38c0.55 0.23 1.16 0.38 1.81 0.38c0.61 0 1.2-0.14 1.77-0.38l2.7 33.38c0.19 2.33 2.14 4.09 4.44 4.09c0.14 0 0.28 0 0.38 0c2.47-0.23 4.28-2.38 4.09-4.84l-2.94-36.88l0-25.44c0.33 0.08 0.7 0.17 1.03 0.27l2.7 24.48c0.23 1.91 1.81 3.3 3.67 3.3c0.14 0 0.28 0 0.42-0.05l0 0Z"
          fill="rgb(37,0,128)"/>
</svg>